{"asset":{"version":"2.0","generator":"VECTARY"},"nodes":[{"translation":[0,0,0],"scale":[0.006184199236132513,0.006184199236132513,0.006184199236132513],"rotation":[-0.7071067811865475,0,0,0.7071067811865476],"name":"Octagonal one storey skyscraper block","children":[1,2]},{"translation":[0,0,0],"scale":[1,1,1],"rotation":[0,0,0,1],"name":"Project Name"},{"translation":[0,0,0],"scale":[1,1,1],"rotation":[0,0,0,1],"name":"One floor skyscraper","children":[3,4]},{"translation":[0,-30,0],"scale":[1,1,1],"rotation":[0,0,0,1],"name":"Frame","mesh":0},{"translation":[0,-30,0],"scale":[1,1,1],"rotation":[0,0,0,1],"name":"Glass","mesh":1}],"materials":[{"pbrMetallicRoughness":{"baseColorFactor":[0.04455262731642138,0.04614884242235095,0.08021925873621505,1],"metallicFactor":0,"roughnessFactor":1},"name":"Frame","emissiveFactor":[0,0,0],"extensions":{},"alphaMode":"OPAQUE","doubleSided":false},{"pbrMetallicRoughness":{"baseColorFactor":[1,1,1,1],"metallicFactor":0,"roughnessFactor":0},"name":"Glass","emissiveFactor":[0,0,0],"extensions":{},"alphaMode":"OPAQUE","doubleSided":false}],"meshes":[{"primitives":[{"mode":4,"attributes":{"POSITION":1,"NORMAL":2,"TEXCOORD_0":3},"material":0,"indices":0}]},{"primitives":[{"mode":4,"attributes":{"POSITION":5,"NORMAL":6,"TEXCOORD_0":7},"material":1,"indices":4}]}],"accessors":[{"bufferView":0,"byteOffset":0,"componentType":5125,"count":1728,"type":"SCALAR"},{"bufferView":1,"byteOffset":0,"componentType":5126,"count":754,"max":[50,80,30],"min":[-50,-20,0],"type":"VEC3"},{"bufferView":2,"byteOffset":0,"componentType":5126,"count":754,"type":"VEC3"},{"bufferView":3,"byteOffset":0,"componentType":5126,"count":754,"type":"VEC2"},{"bufferView":4,"byteOffset":0,"componentType":5125,"count":864,"type":"SCALAR"},{"bufferView":5,"byteOffset":0,"componentType":5126,"count":576,"max":[49.34000015258789,79.33999633789062,28.52199935913086],"min":[-49.34000015258789,-19.339998245239258,1.4780000448226929],"type":"VEC3"},{"bufferView":6,"byteOffset":0,"componentType":5126,"count":576,"type":"VEC3"},{"bufferView":7,"byteOffset":0,"componentType":5126,"count":576,"type":"VEC2"}],"bufferViews":[{"buffer":0,"byteOffset":0,"byteLength":6912,"target":34963},{"buffer":0,"byteOffset":6912,"byteLength":9048,"target":34962},{"buffer":0,"byteOffset":15960,"byteLength":9048,"target":34962},{"buffer":0,"byteOffset":25008,"byteLength":6032,"target":34962},{"buffer":0,"byteOffset":31040,"byteLength":3456,"target":34963},{"buffer":0,"byteOffset":34496,"byteLength":6912,"target":34962},{"buffer":0,"byteOffset":41408,"byteLength":6912,"target":34962},{"buffer":0,"byteOffset":48320,"byteLength":4608,"target":34962}],"scene":0,"scenes":[{"nodes":[0],"name":"Project Name"}],"extensionsUsed":["KHR_texture_transform"],"buffers":[{"byteLength":52928,"uri":"ProjectName.bin"}]}